<svg id="visual" viewBox="0 0 960 540" width="960" height="540" xmlns="http://www.w3.org/2000/svg" xmlns:xlink="http://www.w3.org/1999/xlink" version="1.1"><rect x="0" y="0" width="960" height="540" fill="#001220"></rect><g transform="translate(74.32801488526246 118.63399542166638)"><path d="M174.4 -218.9C269.3 -128.3 419.3 -114.3 466.5 -51.9C513.7 10.6 458.2 121.5 377.3 176.6C296.4 231.7 190.1 231 108.2 233C26.2 234.9 -31.4 239.6 -152.5 263.1C-273.6 286.6 -458.3 328.9 -552.5 269C-646.7 209.1 -650.3 46.9 -601.7 -84.8C-553.1 -216.5 -452.4 -317.8 -343.4 -405.9C-234.4 -494 -117.2 -569 -38.7 -522.9C39.8 -476.7 79.5 -309.5 174.4 -218.9" fill="#2A7F62"></path></g></svg>