<svg id="visual" viewBox="0 0 900 600" width="900" height="600" xmlns="http://www.w3.org/2000/svg" xmlns:xlink="http://www.w3.org/1999/xlink" version="1.1"><rect x="0" y="0" width="900" height="600" fill="#001220"></rect><g transform="translate(436.3770582530591 415.0601522708203)"><path d="M520.8 -719.7C651 -622.3 715.9 -438 753.4 -259.6C791 -81.3 801.1 91.2 701 174.8C601 258.5 390.7 253.4 255.5 337.8C120.3 422.2 60.2 596.1 17.2 572.4C-25.7 548.7 -51.4 327.5 -82.7 209.3C-113.9 91.1 -150.6 76 -304.2 4.2C-457.8 -67.6 -728.2 -196 -751.2 -280.9C-774.3 -365.7 -550 -407 -383.5 -492.5C-217.1 -578.1 -108.5 -708.1 43.4 -767.8C195.3 -827.5 390.7 -817.1 520.8 -719.7" fill="#2A7F62"></path></g></svg>