<svg id="visual" viewBox="0 0 900 600" width="900" height="600" xmlns="http://www.w3.org/2000/svg" xmlns:xlink="http://www.w3.org/1999/xlink" version="1.1"><rect x="0" y="0" width="900" height="600" fill="#001220"></rect><defs><linearGradient id="grad1_0" x1="33.3%" y1="0%" x2="100%" y2="100%"><stop offset="20%" stop-color="#001220" stop-opacity="1"></stop><stop offset="80%" stop-color="#001220" stop-opacity="1"></stop></linearGradient></defs><defs><linearGradient id="grad2_0" x1="0%" y1="0%" x2="66.7%" y2="100%"><stop offset="20%" stop-color="#001220" stop-opacity="1"></stop><stop offset="80%" stop-color="#001220" stop-opacity="1"></stop></linearGradient></defs><g transform="translate(900, 0)"><path d="M0 540.8C-47.6 510.1 -95.1 479.4 -150.2 462.2C-205.3 445 -267.8 441.3 -292.1 402.1C-316.4 362.9 -302.4 288.1 -341.4 248C-380.4 208 -472.3 202.7 -514.4 167.1C-556.4 131.6 -548.6 65.8 -540.8 0L0 0Z" fill="#2A7F62"></path></g><g transform="translate(0, 600)"><path d="M0 -540.8C57.3 -518.6 114.5 -496.3 146.5 -450.8C178.4 -405.3 185.1 -336.4 226.9 -312.3C268.7 -288.1 345.6 -308.7 402.1 -292.1C458.6 -275.6 494.6 -222 514.4 -167.1C534.1 -112.3 537.5 -56.1 540.8 0L0 0Z" fill="#2A7F62"></path></g></svg>