<svg id="visual" viewBox="0 0 900 600" width="900" height="600" xmlns="http://www.w3.org/2000/svg" xmlns:xlink="http://www.w3.org/1999/xlink" version="1.1"><rect x="0" y="0" width="900" height="600" fill="#001220"></rect><defs><linearGradient id="grad1_0" x1="33.3%" y1="0%" x2="100%" y2="100%"><stop offset="20%" stop-color="#001220" stop-opacity="1"></stop><stop offset="80%" stop-color="#001220" stop-opacity="1"></stop></linearGradient></defs><defs><linearGradient id="grad2_0" x1="0%" y1="0%" x2="66.7%" y2="100%"><stop offset="20%" stop-color="#001220" stop-opacity="1"></stop><stop offset="80%" stop-color="#001220" stop-opacity="1"></stop></linearGradient></defs><g transform="translate(900, 0)"><path d="M0 378.6C-13.5 311.1 -26.9 243.7 -56.3 246.7C-85.7 249.6 -130.9 323 -164.3 341.1C-197.6 359.2 -219.1 322.1 -230.7 289.3C-242.2 256.5 -243.8 228.1 -261.9 208.9C-280 189.7 -314.6 179.7 -330.7 159.2C-346.7 138.8 -344.1 107.9 -349 79.7C-353.9 51.4 -366.2 25.7 -378.6 0L0 0Z" fill="#2A7F62"></path></g><g transform="translate(0, 600)"><path d="M0 -378.6C12.7 -310.2 25.4 -241.8 55.9 -244.7C86.3 -247.6 134.6 -321.9 160.1 -332.5C185.6 -343 188.5 -290 214.5 -269C240.5 -247.9 289.6 -258.9 296 -236C302.3 -213.2 265.9 -156.4 257.7 -124.1C249.5 -91.8 269.6 -83.8 294.4 -67.2C319.3 -50.6 348.9 -25.3 378.6 0L0 0Z" fill="#2A7F62"></path></g></svg>