<svg id="visual" viewBox="0 0 900 600" width="900" height="600" xmlns="http://www.w3.org/2000/svg" xmlns:xlink="http://www.w3.org/1999/xlink" version="1.1"><rect x="0" y="0" width="900" height="600" fill="#001220"></rect><g transform="translate(5.541471117810232 44.32871974083025)"><path d="M117.1 -135.8C178 -88.5 271.7 -76.5 292.7 -39.5C313.7 -2.4 262.1 59.5 209.5 93C156.8 126.4 103.2 131.3 47.7 167.2C-7.8 203 -65.1 269.7 -121.7 274.9C-178.3 280.1 -234.2 223.8 -262.7 159.1C-291.2 94.4 -292.4 21.3 -300.2 -73.6C-308.1 -168.6 -322.8 -285.4 -273.9 -334.7C-225 -384.1 -112.5 -366.1 -42.2 -315.8C28.1 -265.5 56.2 -183 117.1 -135.8" fill="#2A7F62"></path></g></svg>